<?xml version="1.0" encoding="UTF-8"?>
<!DOCTYPE svg PUBLIC "-//W3C//DTD SVG 1.1//EN" "http://www.w3.org/Graphics/SVG/1.1/DTD/svg11.dtd">
<!-- Creator: CorelDRAW -->
<svg xmlns="http://www.w3.org/2000/svg" xml:space="preserve" width="38.6945mm" height="47.3597mm" version="1.1" style="shape-rendering:geometricPrecision; text-rendering:geometricPrecision; image-rendering:optimizeQuality; fill-rule:evenodd; clip-rule:evenodd"
viewBox="0 0 541.44 662.69"
 xmlns:xlink="http://www.w3.org/1999/xlink"
 xmlns:xodm="http://www.corel.com/coreldraw/odm/2003">
 <defs>
  <style type="text/css">
   <![CDATA[
    .str0 {stroke:#FEFEFE;stroke-width:10.49;stroke-miterlimit:22.9256}
    .fil2 {fill:#C5C5C6}
    .fil1 {fill:#7F8182}
    .fil3 {fill:#4B4C4C}
    .fil0 {fill:#292929}
   ]]>
  </style>
 </defs>
 <g id="Camada_x0020_1">
  <metadata id="CorelCorpID_0Corel-Layer"/>
  <path class="fil0 str0" d="M122.03 278.54c-0.58,1.59 2.74,2.05 -2.28,1.3 0.91,2.57 1.13,1.96 -1.4,0.99 1.03,2.6 1.28,2.06 -1.3,1.06 1.1,2.82 1.19,1.78 -2.15,1.56l-88.4 59.38c-2.65,1.49 -8.23,5.14 -10.81,7.07 -5.21,3.89 -4.51,6.72 -4.4,15 0.43,34.72 -1.64,82.79 0.36,113.94 9.1,7.35 22.15,14.32 33.3,21.18l221.12 139.04c7.79,3.31 14.51,-3.79 19.59,-6.2l4.28 -4.06c0.23,-0.15 0.54,-0.29 0.77,-0.43l2.92 -1.73c0.21,-0.14 0.48,-0.35 0.69,-0.49l21.65 -14.01c2.01,-1.2 1.94,-1.23 4.47,-2.56l36.36 -22.91c0.2,-0.15 0.46,-0.38 0.67,-0.52l19.83 -12.26c1.27,-0.71 0.4,-0.12 2.21,-1.27 0.21,-0.13 0.49,-0.33 0.69,-0.47 0.2,-0.14 0.48,-0.35 0.68,-0.49 26.39,-18.1 60.9,-37.3 87.89,-55.39l60.34 -37.85c1.53,-22.86 0.58,-71.27 0.47,-98.12 -0.13,-31.38 4.99,-23.93 -20.84,-41l-31.62 -20.5c-3.63,-2.17 -5.74,-3.51 -9.46,-5.99l-18.78 -13.97c-5.51,-2.4 -11.54,-7.27 -16.91,-10.65 -5.38,-3.38 -10.98,-7.65 -15.77,-10.33 -4.61,-1.68 -5.78,-4.51 -10.7,-3.36l-26.09 15.38c-0.23,0.12 -0.52,0.29 -0.75,0.42l-72.81 43.95c-2.59,1.37 -2.16,1.47 -4.35,2.87 -5.61,3.6 -21.89,14.6 -26.89,14.68 -0.37,1.73 2.55,2.25 -2.4,1.16 -0.77,1.59 -0.25,1.11 -1.93,2.76l-61.88 37.43c-5.05,2.57 -3.33,4.06 -10.13,4.45 -0.92,2.06 0.43,1.76 -5.37,5.02l-18.52 12.02c3.58,8.82 1.78,3.67 9.05,8.33l18.67 12.02c2.41,1.46 3.54,1.94 5.21,3.13l3.73 3.49c3.17,0.19 4.25,0.05 7.81,5.21 3.3,0.23 1.22,-0.55 3.49,1.2 2.44,1.88 0.34,-0.53 1.28,2.31 4.38,-0.72 1.9,-0.59 2.36,1.21 3.34,0.02 1.07,-0.83 3.76,0.9 3.15,2.03 1.32,0.92 1.8,2.85 4.74,-0.76 2.2,-0.68 2.41,1.17 4.6,-0.72 2.14,-0.7 2.3,1.26 2.62,-0.93 2.33,-1.45 1.28,1.15 2.53,-1 2.17,-1.45 1.27,1.13 4.38,-0.51 2.02,-0.51 2.28,1.17 5.71,-0.03 2.98,0.42 8.27,3.51 1.48,0.87 2.42,1.02 3.81,2.16 3.59,2.91 1.76,1.54 2.59,3.48 4.8,0.1 4.95,2.22 11.96,3.69 -0.92,-2.58 -1.32,-2.19 1.22,-1.15 -1.1,-2.7 -1.22,-1.98 1.47,-0.99 0.58,-1.34 -3.32,-1.93 3.04,-1.58 0.54,-1.88 -2.17,-2.05 2.1,-1.48 -0.95,-2.53 -1.21,-2 1.31,-1.07 -1.09,-2.81 -1.18,-1.79 2.09,-1.49l1.68 -1.47c0,-3.4 -0.96,-3.15 2.01,-1.94 -1.11,-2.71 -1.47,-2.29 1.2,-1.12 0.54,-1.74 -2.82,-2.84 2.31,-1.2 0.89,-1.25 -0.11,-0.36 2.34,-2.54 0.08,-0.07 1.89,-1.46 2.03,-1.55 3.27,-1.96 1.86,-1.44 5.38,-1.75 0.89,-2.17 -0.51,-0.14 1.35,-2.13l49.17 -30.2c3.54,-2.34 5.1,-4.38 8.2,-6.08 2.77,-1.51 1.99,-0.67 4.67,-2.51l54.27 -33.3c4.38,-2.95 10.75,-9.16 17.44,-7.26 1.96,7.63 2.98,47.12 -1.09,52.15l-16.06 11.29c-2.94,1.74 -2.55,0.94 -4.83,2.24 -3.78,2.14 -8.15,7.05 -12.81,7.12 -0.95,1.81 3.21,2.49 -2.92,1.31 -4.01,1.2 -24.27,15.27 -31.02,19.32l-91.14 57.6c-4.43,-1.7 -11.14,-6.71 -15.88,-9.67 -2.68,-1.68 -5.05,-3.21 -8.03,-5.05 -2.02,-1.25 -5.92,-3.76 -6.9,-4.62 -3.43,0.23 -3.32,1.26 -2.1,-1.68 -2.55,1.06 -2.28,1.6 -1.35,-1.03 -2.57,0.97 -2.56,1.85 -1.63,-0.75 -4.39,0.75 -1.64,0.41 -2.32,-1.24 -4.39,0.86 -1.65,0.5 -2.24,-1.29 -2.51,0.95 -2.12,1.35 -1.19,-1.17 -2.46,0.89 -2.24,1.5 -1.41,-0.98 -2.24,-0.19 -3.22,-0.02 -5.38,-1.6 -4.83,-3.53 -1.48,-0.78 -2.46,-3.59 -4.42,0.69 -1.84,0.52 -2.23,-1.34 -3.54,-0.07 -19.81,-9.5 -22.51,-14.22 -4.47,0.91 -1.96,0.74 -2.33,-1.22 -3.59,-0.19 -1.1,0.65 -3.49,-1.19 -2.2,-1.69 -0.55,0.2 -1.29,-2.32 -5.31,-0.01 -12.27,-6.15 -16.89,-9.02 -3.39,-2.1 -4.72,-3.16 -8.02,-5.05 -1.16,-0.66 -5.65,-3.03 -6.02,-4.77 -0.08,-0.39 -0.33,-0.48 -0.47,-0.73 -4.58,0.96 -1.66,0.4 -2.35,-1.18 -2.29,-0.17 -1.79,0.06 -3.45,-1.21 -2.38,-1.82 -0.41,0.43 -1.33,-2.31 -4.67,-0.56 -11.96,-6.32 -16.05,-8.9 -14.56,-9.19 -24.43,-11.53 -24.01,-24.73 0.28,-8.96 4.73,-9.88 10.21,-13.61 2.19,-1.49 53.74,-36.79 59,-36.98 1.46,-2.95 3.12,-3.91 6.21,-5.59l20.74 -13.64c5.37,-3.44 8.83,-5.38 13.69,-8.82 2.72,-1.93 4.34,-2.65 7.26,-4.59 2.72,-1.8 3.36,-2.45 6.38,-4.12 -1.56,-2.71 -2.92,-3.53 -5.69,-5.46l-16.9 -12.63c-2.57,1 -2.57,1.89 -1.62,-0.73 -2.49,0.91 -2.18,1.39 -1.25,-1.11 -2.47,0.88 -2.09,1.32 -1.28,-1.17 -4.75,0.83 -1.52,0.25 -2.21,-1.32 -4.61,0.99 -1.68,0.41 -2.44,-1.15 -2.36,-0.18 -1.68,0.06 -3.38,-1.22 -2.21,-1.67 -0.43,-0.09 -1.45,-2.28 -4.79,1.06 -1.58,0.29 -2.3,-1.19 -2.28,-0.25 -1.72,0 -3.34,-1.28 -2.41,-1.91 -0.38,0.52 -1.35,-2.3 -4.53,0.72 -1.56,0.3 -2.23,-1.31 -3.19,-0.21 -2.61,0.78 -6.12,-3.24l-0.99 -1.49c-2.49,0.97 -2.3,1.65 -1.51,-0.9 -2.29,0.8 -1.89,1.16 -1.15,-1.15 -2.27,0.73 -1.89,1.18 -1.33,-1.13 -7.79,-0.61 -23.7,-16.93 -33.59,-19.46 -3.89,2.88 -16.47,12.75 -21.18,12.96z"/>
  <path class="fil0 str0" d="M16.34 307.99c2.17,-5.13 24,-17.33 29.12,-20.77l60.26 -39.36c6.58,-4.08 5.04,-10 4.9,-19.18l-0.21 -17.88c0.12,-1.88 -0.08,-1.48 0.51,-3.25 1.11,-3.36 -0.43,-1.03 1.52,-2.54 0.81,-2.1 2.14,-3.42 7.46,-0.69l5.07 4.85c4.86,-1.03 1.46,-0.19 2.17,1.26 2.4,-0.92 2.05,-1.35 1.24,1.1 2.31,-0.8 1.94,-1.26 1.33,1.1 5.03,-0.95 1.48,-0.23 2.41,1.28 3.45,0.01 1.66,-0.49 4.3,1.23 0,0 1.74,1.64 1.86,1.78 1.15,1.32 0.9,1.29 1.52,2.17 7.98,0.32 126.16,83.14 131.35,82.81l118.55 -76.53c1.95,-1.39 2.22,-1.19 4.59,-2.54 3.13,-1.78 2.12,-1.67 4.83,-3.43l20.37 -12.93c2.29,-1.66 4.89,-4.17 9.1,-4.14 6.79,0.05 3.03,34.42 3.87,44.22 2.73,2.19 7.99,5.2 11.4,7.31 9.28,5.72 81.45,55.39 84.3,53.03 2.68,-2.22 1.38,-31.89 1.37,-35.56 -0.06,-41.18 1.27,-253.09 -0.72,-258.72 -1.1,-0.44 -0.33,-0.65 -2.7,-0.44 -6.71,0.6 -10.97,9.99 -20.11,10.72 -1.33,5.31 -1.34,2.52 -6.05,5.7 -2.69,1.81 -3.3,2.39 -7.06,4.67 -4.4,2.68 -9.9,8.27 -15.3,8.7 -2.11,3.75 -7.25,6.63 -12.42,9.77 -3.35,2.04 -2.55,1.57 -5.03,3.3 -4.07,2.86 -15.71,11.42 -20.28,11.93 0.67,2.13 0.93,1.62 -1.26,1.05 0.55,2.06 0.88,1.61 -1.21,1.12 0.55,2.15 0.84,1.47 -1.56,1.45 -3.58,1.29 -8.65,5.11 -12.07,7.41 -2.43,1.63 -3.52,2.29 -6.53,4.13 -4.33,2.65 -1.46,2.62 -6.77,2.8 -0.61,1.49 3.53,2.48 -3.38,1.32 1.18,2.7 1.53,2.29 -1.17,1.14 1.2,2.81 1.59,2.39 -1.22,1.21 -1.11,2.47 0.13,0.58 -2.06,2.79 -0.24,0.24 -1.64,1.38 -1.94,1.57 -4.56,2.84 -0.29,1.67 -5.39,1.62 -0.98,2.11 0.5,0.75 -2.48,3.52l-81.95 54.28c-2.42,1.67 -4.58,2.97 -7.16,4.69l-14.4 9.38c-3.69,2.53 -2.19,3.26 -7.64,2.83 -0.74,3.85 1.89,-0.05 -2.01,3.97l-8.53 5.56c-6.41,-2.21 -36.27,-23.58 -45.68,-28.93 -16.09,-9.16 -56.47,-39.41 -73.1,-48.79 -3.28,0.25 -3.24,1.32 -2.21,-1.4 -2.54,1 -2.2,1.44 -1.23,-1.12 -2.46,0.88 -2.14,1.36 -1.28,-1.11 -3.91,-0.46 -25.65,-14.51 -31.11,-18.48l-4.18 -4.28c-2.57,1.01 -2.31,1.54 -1.3,-1.06 -2.46,0.93 -2.19,1.48 -1.36,-1.03 -5.11,0.63 -1.72,0.17 -2.39,-1.19l-25.68 -15.63c-0.27,-0.23 -1.01,-0.93 -1.23,-1.19 -1.73,-2.01 -0.41,0.01 -1.39,-2.26 -5.28,1.07 -1.81,0.34 -2.36,-1.18 -4.98,-0.53 -22.05,-13.06 -28.34,-17.64 -0.88,-0.64 -1.13,-0.72 -2.04,-1.5l-1.28 -1.25c-0.14,-0.14 -0.44,-0.43 -0.61,-0.67 -2.46,0.98 -2.1,1.39 -1.2,-1.11 -2.42,0.87 -2.05,1.32 -1.3,-1.14 -4.85,0.78 -1.51,0.22 -2.32,-1.3 -3.6,-0.21 -1.52,0.51 -4.33,-1.35 -4.05,-2.67 -1.93,-1.65 -2.86,-3.29 -4.16,-0.47 -1.09,0.55 -3.5,-1.07 -3.3,-2.22 -1.81,-1.61 -2.64,-3.51 -4.71,-0.07 -3.58,-0.64 -6.54,-2.8 -1.4,-1.02 -4.2,-3.56 -5.63,-2.72 -5.04,4.46 -2.16,25.84 -2.16,34.42l-0.01 222.73c-0.02,10.56 -0.95,27.61 0.37,37.4l4.08 1.63z"/>
  <path class="fil1 str0" d="M16.34 307.99c3.67,-0.63 4.42,-2.25 8.84,-4.73 1.38,-0.77 2.93,-1.94 4.11,-2.66 3.4,-2.07 -1.07,-1.17 3.99,-1.56 1.06,-2.16 -0.72,-0.55 1.99,-2.94 2.26,-2 0.14,-0.8 3.23,-1.47 0.24,-0.19 0.59,-0.42 0.75,-0.53 6.37,-4.5 34.53,-23.87 38.13,-24.49 0.21,-0.22 0.46,-0.54 0.6,-0.68 0.13,-0.14 0.43,-0.5 0.59,-0.67 0.16,-0.16 0.42,-0.47 0.6,-0.64 0.29,-0.27 1.74,-2.36 5.51,-2.55 0.19,-0.23 0.46,-0.54 0.58,-0.68 3.74,-4.15 4.29,-4.41 8.32,-4.72 0.92,-1.51 -1.08,-0.33 2.19,-2.59 2.89,-2 -2.19,-0.02 2.66,-0.87 0.65,-1.1 -2.84,-1.58 3.15,-1.59 0.57,-1.36 -1.16,-1 2.51,-3.43 2.82,-1.86 0.71,-0.71 3.64,-1.07l1.65 -1.9c1.42,-1.78 0.45,-0.18 1.44,-1.94 2.61,-4.59 2.25,-11.39 2.08,-16.42 -0.28,-8.25 0.03,-16.86 -0.47,-24.86 3.62,0.63 3.76,0.1 6.72,1.63 3.55,1.84 -1.06,1.87 5.81,2.53l-0.75 1.79 2.92 -0.52c-0.77,2.35 -1.11,1.9 1.24,1.1 -0.85,2.33 -1.08,1.76 1.33,1.1 0.13,2.01 -1.78,1.54 2.41,1.28l-0.8 1.83c4.9,-1.2 1.96,-0.56 2.36,1.12l6.12 2.23 5.58 6.26c3.68,0.24 2.02,-0.58 5.26,1.86 2.8,2.12 1.96,2.05 2.61,3.15 4.25,-0.24 2.18,-0.54 2.32,1.2 2.77,-0.81 2.73,-1.6 1.48,1.05 2.59,-1.11 2.09,-1.39 1.13,1.23 2.54,-0.93 2.39,-1.6 1.44,0.96 4.47,0.01 2.41,-0.03 3.06,1.55 4.21,0.84 19.14,10.66 21.48,14.08 3.72,0.26 5.97,1.46 9.12,5.2 2.42,0.49 4.24,0.77 6.88,4.98 3.33,0.35 5.42,1.34 8.19,4.84 4.52,0.49 0.1,-1.03 2.68,0.9 2.11,1.58 0.34,0.09 1.13,2.4 3.3,0.22 3.34,0.16 6.18,2.02 0.15,0.1 2.37,1.97 2.59,2.18 1.26,1.19 1.15,1.15 1.74,1.88 3.03,0.37 1.39,-0.4 3.43,1.28 2.56,2.11 0.43,-1.42 1.19,2.36 4.27,-0.48 1.8,-0.41 2.29,1.29 4.74,-0.97 1.99,-0.54 2.46,1.06 3.02,0.67 0.99,-0.29 3.34,1.51 2.22,1.69 0.49,0.45 1.97,2.42l23.52 14.72c3.8,2.24 5.99,6.78 13.22,4.45l42.14 -26.64c2.89,-2.12 3.19,-1.87 5.91,-3.67 2.63,-1.73 0.99,-0.91 2.53,-2.05l10.92 -6.89c0.31,-0.18 1.22,-0.67 1.51,-0.86 1.7,-1.1 1.05,-0.84 2.64,-2.06 0.2,-0.15 0.46,-0.38 0.66,-0.53l16.9 -11.33c4.51,-2.57 7.46,-4.86 11.52,-7.6l32.67 -20.64c0.21,-0.14 0.51,-0.32 0.72,-0.45l14.38 -9.3c8.6,-5.93 6.44,-6.14 12.51,-6.27 1.84,12.64 -1.74,30.55 1.41,42.64 3.06,2.32 6.83,4.67 11.29,7.76l37.17 24.31c3.73,2.43 44.5,30.58 50.6,31.33 4.38,-6.1 2.57,-26.79 2.55,-35.62l-0 -249.97c-0.04,-9.32 2.11,-22.89 -7.64,-17 -1.77,1.07 -3.98,2.54 -5.77,3.86 -4.09,3.02 -8.77,6.15 -11.8,7.26 -1.01,1.6 -0.42,0.97 -0.91,2.66 -0.24,0.1 -0.52,0.32 -0.66,0.39 -0.14,0.07 -0.52,0.3 -0.7,0.38l-4.83 1.33c-0.01,2.01 0.39,1.16 -2.35,1.26 -2.45,3.32 -0.6,2.33 -4.76,3.53 -0.01,1.91 0.36,1.08 -2.37,1.15 -2.38,3.37 -2.34,3.66 -7.11,4.78l-5 5.58c-0.1,-0.21 -0.42,0.44 -0.63,0.67 -5.17,0.39 -0.8,0.56 -6.22,1.94 -0.01,2.06 0.4,1.2 -2.36,1.31 -2.55,3.5 -2.83,3.57 -6.94,5.66 -3.9,1.99 -18.26,10.97 -21.21,14.58l-1 1.52c-2.17,-0.76 -1.81,-1.17 -1.26,1.05 -2.1,-0.59 -1.72,-0.99 -1.21,1.12 -2.18,-0.53 -1.56,-0.89 -1.56,1.45 2.4,0.02 2.11,0.69 1.56,-1.45 2.1,0.49 1.77,0.94 1.21,-1.12 2.19,0.57 1.93,1.08 1.26,-1.05 4.57,-0.5 16.21,-9.07 20.28,-11.93 2.47,-1.74 1.68,-1.27 5.03,-3.3 5.17,-3.15 10.31,-6.02 12.42,-9.77 5.41,-0.43 10.9,-6.02 15.3,-8.7 3.76,-2.29 4.37,-2.86 7.06,-4.67 4.71,-3.18 4.72,-0.39 6.05,-5.7 9.15,-0.73 13.4,-10.12 20.11,-10.72 2.37,-0.21 1.6,-0 2.7,0.44 1.99,5.63 0.66,217.54 0.72,258.72 0.01,3.68 1.31,33.34 -1.37,35.56 -2.84,2.36 -75.02,-47.31 -84.3,-53.03 -3.41,-2.1 -8.67,-5.12 -11.4,-7.31 -0.85,-9.8 2.92,-44.17 -3.87,-44.22 -4.21,-0.03 -6.81,2.48 -9.1,4.14l-20.37 12.93c-2.71,1.77 -1.7,1.65 -4.83,3.43 -2.36,1.34 -2.64,1.15 -4.59,2.54l-118.55 76.53c-5.19,0.33 -123.37,-82.49 -131.35,-82.81 -0.62,-0.88 -0.37,-0.85 -1.52,-2.17 -0.12,-0.14 -1.86,-1.78 -1.86,-1.78 -2.64,-1.72 -0.85,-1.22 -4.3,-1.23 -0.93,-1.52 2.63,-2.23 -2.41,-1.28 0.62,-2.35 0.98,-1.9 -1.33,-1.1 0.8,-2.45 1.16,-2.02 -1.24,-1.1 -0.71,-1.45 2.69,-2.3 -2.17,-1.26l-5.07 -4.85c-5.32,-2.73 -6.65,-1.41 -7.46,0.69 -1.95,1.51 -0.4,-0.82 -1.52,2.54 -0.59,1.77 -0.39,1.37 -0.51,3.25l0.21 17.88c0.14,9.18 1.68,15.1 -4.9,19.18l-60.26 39.36c-5.13,3.44 -26.96,15.64 -29.12,20.77l-4.08 -1.63c-1.32,-9.79 -0.39,-26.84 -0.37,-37.4l0.01 -222.73c-0,-8.59 -2.88,-29.97 2.16,-34.42 1.43,-0.84 4.23,1.7 5.63,2.72 2.96,2.16 1.83,2.73 6.54,2.8 0.83,1.9 -0.67,1.28 2.64,3.51 2.41,1.62 -0.66,0.59 3.5,1.07 0.93,1.64 -1.19,0.62 2.86,3.29 2.81,1.85 0.74,1.13 4.33,1.35 0.81,1.52 -2.54,2.08 2.32,1.3 -0.75,2.46 -1.12,2.01 1.3,1.14 -0.9,2.5 -1.26,2.09 1.2,1.11 0.18,0.25 0.47,0.54 0.61,0.67l1.28 1.25c0.91,0.78 1.16,0.86 2.04,1.5 6.29,4.58 23.36,17.1 28.34,17.64 0.56,1.52 -2.91,2.25 2.36,1.18 0.98,2.27 -0.34,0.25 1.39,2.26 0.22,0.25 0.96,0.96 1.23,1.19l25.68 15.63c0.67,1.35 -2.72,1.81 2.39,1.19 -0.82,2.51 -1.1,1.96 1.36,1.03 -1.01,2.6 -1.27,2.06 1.3,1.06l4.18 4.28c5.46,3.97 27.2,18.02 31.11,18.48 -0.86,2.47 -1.18,2 1.28,1.11 -0.97,2.56 -1.31,2.12 1.23,1.12 -1.04,2.72 -1.07,1.65 2.21,1.4 0,-2.97 0.66,-2.39 -2.21,-1.4 0.83,-2.44 1.19,-2.02 -1.23,-1.12 0.99,-2.59 1.3,-2.1 -1.28,-1.11 -1.88,-3.54 -32.84,-22.39 -35.29,-22.76 0.88,-2.5 1.17,-2 -1.3,-1.06 1.04,-2.61 1.24,-2 -1.36,-1.03 -0.31,-1.69 2.28,-1.83 -2.39,-1.19l-2.44 -3.49c-1.17,-1.1 -1.89,-1.36 -3.62,-2.37 -5.19,-3.04 -17.71,-12.66 -22.24,-13.22 -0.38,-1.45 2.69,-1.58 -2.36,-1.18 -2.48,-5.45 -18.56,-11.71 -28.75,-21.03l-3.52 -0.04c0.88,-2.42 1.22,-1.98 -1.2,-1.11 0.93,-2.47 1.21,-1.94 -1.3,-1.14 -0.16,-2.06 1.91,-1.73 -2.32,-1.3 -0.52,-0.9 -0.13,-0.77 -1.35,-2.06 -3.57,-3.79 2.45,1.36 -1.21,-1.13 -2.67,-1.81 -1.27,-1.08 -4.64,-1.45 -0.48,-0.97 0.37,-1.3 -2.5,-3.27 -2.92,-2.01 0.02,-0.58 -3.64,-1.3 -1.26,-1.81 -11.33,-8.98 -12.86,-9.37 -5.99,4.22 -4.01,6.63 -4,15.77l-0.08 249.98c-0.01,10.24 -2.57,28.93 2.1,35.62 2.95,0.24 1.35,0.3 3.57,-0.17 0.21,-0.04 0.61,-0.15 0.76,-0.5 0.15,-0.34 0.41,-0.44 0.62,-0.65z"/>
  <path class="fil2 str0" d="M33.29 299.03c4.51,0.13 4.62,-0.21 5.22,-4.41 8.56,0.65 5.78,-0.85 10.35,-3.98l14.58 -9.01c3.13,-2.95 8.98,-6.89 13.74,-7.57l0.22 -4.46c5.94,0.61 6,-0.42 7.29,-4.54 5.94,0.15 5.83,-1.04 8.91,-5.4 4.53,0.31 3.94,0.7 4.85,-3.45 6.31,0.19 2.4,-0.35 3.15,-1.59 3.32,-0.19 1.26,0.62 3.72,-1.02 2.41,-1.6 1.93,-2.37 2.44,-3.48l3.74 -0.01c2.75,-4.49 6.32,-8.48 5.64,-15.83 -0.75,-8.1 -0.64,-15.58 -0.16,-23.76l7.26 0.42c0.68,2.84 -0.24,1.17 1.54,4.18l5.54 0.6c0.62,1.46 -1.89,1.59 2.36,1.12 0.9,5.51 0.12,1.92 4.55,5.11 0.2,0.14 0.47,0.35 0.67,0.49 4.25,3.1 2.44,2.69 6.49,2.88l1.05 1.37c4.21,4.78 2.91,3.6 6.81,3.64 0.8,1.38 -2.55,2.01 2.32,1.2 -0.73,2.63 -1.05,2.07 1.48,1.05 -1.06,2.61 -1.51,2.26 1.13,1.23 -1.12,2.71 -1.23,2 1.44,0.96 0.81,1.11 -3.47,1.9 3.06,1.55 1.66,5.36 0.29,1.99 4.16,4.39 5.39,3.34 11.38,9.3 17.31,9.69 1,1.99 -0.22,0.43 1.39,2.26 0.75,0.86 0.81,1.11 1.88,1.76 3.07,1.87 2.62,1.32 5.85,1.18l0.66 3.8 6.22 1.18c0.5,3.52 -1.69,1.04 2.32,3.63 1.83,1.19 3.88,1.06 5.87,1.21 0.1,5.22 2.08,3.2 3.81,3.3 0.65,0.97 0.3,0.58 1.63,1.98 0.01,0.01 2.26,2.14 2.42,2.26 3.35,2.35 1.87,1.95 6.47,1.84 0.95,3.75 0.2,3.38 4.62,3.65 0.43,1.66 -3.1,2.29 2.29,1.29 0.58,1.46 -2.13,1.82 2.46,1.06 -0.2,3.82 1.71,3.43 5.31,3.93 -1.48,-1.97 0.25,-0.73 -1.97,-2.42 -2.35,-1.79 -0.32,-0.84 -3.34,-1.51 -0.47,-1.6 2.27,-2.03 -2.46,-1.06 -0.49,-1.71 1.99,-1.77 -2.29,-1.29 -0.77,-3.79 1.37,-0.26 -1.19,-2.36 -2.05,-1.68 -0.4,-0.91 -3.43,-1.28 -0.59,-0.73 -0.48,-0.68 -1.74,-1.88 -0.22,-0.21 -2.44,-2.08 -2.59,-2.18 -2.84,-1.86 -2.88,-1.8 -6.18,-2.02 -0.79,-2.31 0.98,-0.82 -1.13,-2.4 -2.58,-1.93 1.84,-0.41 -2.68,-0.9 -2.76,-3.5 -4.86,-4.49 -8.19,-4.84 -2.64,-4.21 -4.46,-4.49 -6.88,-4.98 -3.15,-3.74 -5.4,-4.94 -9.12,-5.2 -2.34,-3.42 -17.27,-13.24 -21.48,-14.08 -0.64,-1.58 1.41,-1.54 -3.06,-1.55 0.95,-2.56 1.11,-1.89 -1.44,-0.96 0.96,-2.62 1.47,-2.34 -1.13,-1.23 1.25,-2.65 1.29,-1.86 -1.48,-1.05 -0.14,-1.74 1.92,-1.44 -2.32,-1.2 -0.65,-1.1 0.19,-1.03 -2.61,-3.15 -3.23,-2.44 -1.57,-1.61 -5.26,-1.86l-5.58 -6.26 -6.12 -2.23c-0.4,-1.68 2.53,-2.32 -2.36,-1.12l0.8 -1.83c-4.19,0.26 -2.27,0.73 -2.41,-1.28 -2.41,0.66 -2.17,1.23 -1.33,-1.1 -2.35,0.8 -2.01,1.26 -1.24,-1.1l-2.92 0.52 0.75 -1.79c-6.87,-0.66 -2.26,-0.69 -5.81,-2.53 -2.96,-1.53 -3.1,-1 -6.72,-1.63 0.5,8 0.19,16.61 0.47,24.86 0.17,5.04 0.53,11.84 -2.08,16.42 -0.99,1.75 -0.03,0.16 -1.44,1.94l-1.65 1.9c-2.93,0.37 -0.83,-0.78 -3.64,1.07 -3.68,2.42 -1.94,2.06 -2.51,3.43 -5.99,0 -2.51,0.49 -3.15,1.59 -4.85,0.85 0.24,-1.13 -2.66,0.87 -3.27,2.26 -1.27,1.08 -2.19,2.59 -4.03,0.3 -4.58,0.57 -8.32,4.72 -0.13,0.14 -0.39,0.45 -0.58,0.68 -3.77,0.19 -5.22,2.28 -5.51,2.55 -0.18,0.17 -0.44,0.48 -0.6,0.64 -0.16,0.17 -0.46,0.53 -0.59,0.67 -0.13,0.14 -0.39,0.46 -0.6,0.68 -3.59,0.62 -31.76,19.99 -38.13,24.49 -0.16,0.11 -0.51,0.34 -0.75,0.53 -3.09,0.67 -0.97,-0.52 -3.23,1.47 -2.71,2.39 -0.92,0.78 -1.99,2.94 -5.06,0.39 -0.59,-0.51 -3.99,1.56 -1.18,0.72 -2.73,1.89 -4.11,2.66 -4.42,2.48 -5.17,4.1 -8.84,4.73 -0.21,0.21 -0.47,0.31 -0.62,0.65 -0.15,0.35 -0.55,0.46 -0.76,0.5 -2.22,0.47 -0.62,0.42 -3.57,0.17 -4.67,-6.69 -2.11,-25.38 -2.1,-35.62l0.08 -249.98c-0.01,-9.14 -1.98,-11.55 4,-15.77 1.53,0.4 11.59,7.56 12.86,9.37 3.66,0.72 0.72,-0.71 3.64,1.3 2.87,1.97 2.02,2.3 2.5,3.27 3.36,0.37 1.96,-0.36 4.64,1.45 3.66,2.48 -2.36,-2.67 1.21,1.13 1.22,1.3 0.83,1.16 1.35,2.06 4.23,-0.43 2.16,-0.76 2.32,1.3 2.51,-0.8 2.23,-1.33 1.3,1.14 2.42,-0.87 2.09,-1.31 1.2,1.11l3.52 0.04c10.19,9.31 26.28,15.58 28.75,21.03 5.05,-0.4 1.98,-0.27 2.36,1.18 4.53,0.57 17.05,10.19 22.24,13.22 1.73,1.01 2.45,1.27 3.62,2.37l2.44 3.49c4.67,-0.65 2.08,-0.51 2.39,1.19 2.6,-0.97 2.4,-1.58 1.36,1.03 2.47,-0.95 2.18,-1.45 1.3,1.06 2.46,0.37 33.41,19.22 35.29,22.76 2.57,-0.99 2.26,-1.48 1.28,1.11 2.42,-0.9 2.06,-1.32 1.23,1.12 2.86,-0.99 2.21,-1.57 2.21,1.4 16.63,9.38 57.01,39.63 73.1,48.79 9.41,5.35 39.27,26.73 45.68,28.93l8.53 -5.56c3.89,-4.02 1.27,-0.12 2.01,-3.97 5.45,0.43 3.95,-0.29 7.64,-2.83l14.4 -9.38c2.58,-1.72 4.74,-3.02 7.16,-4.69l81.95 -54.28c2.98,-2.76 1.5,-1.41 2.48,-3.52 5.1,0.06 0.84,1.22 5.39,-1.62 0.3,-0.18 1.69,-1.33 1.94,-1.57 2.19,-2.21 0.95,-0.32 2.06,-2.79 2.81,1.18 2.42,1.6 1.22,-1.21 2.7,1.15 2.34,1.56 1.17,-1.14 6.91,1.16 2.77,0.16 3.38,-1.32 5.31,-0.17 2.44,-0.15 6.77,-2.8 3.01,-1.85 4.1,-2.5 6.53,-4.13 3.42,-2.3 8.49,-6.12 12.07,-7.41 0,-2.35 -0.62,-1.99 1.56,-1.45 -0.5,-2.11 -0.88,-1.71 1.21,-1.12 -0.55,-2.22 -0.91,-1.81 1.26,-1.05l1 -1.52c2.94,-3.61 17.31,-12.59 21.21,-14.58 4.11,-2.09 4.39,-2.16 6.94,-5.66 2.77,-0.1 2.36,0.75 2.36,-1.31 5.42,-1.38 1.05,-1.55 6.22,-1.94 0.21,-0.23 0.54,-0.87 0.63,-0.67l5 -5.58c4.77,-1.12 4.73,-1.41 7.11,-4.78 2.73,-0.07 2.36,0.76 2.37,-1.15 4.15,-1.2 2.31,-0.21 4.76,-3.53 2.74,-0.11 2.35,0.75 2.35,-1.26l4.83 -1.33c0.18,-0.08 0.56,-0.31 0.7,-0.38 0.14,-0.07 0.43,-0.29 0.66,-0.39 0.49,-1.69 -0.1,-1.06 0.91,-2.66 -5.54,1.48 -2.13,1.88 -7.11,4.76l-2.35 1.26c-3.26,0.72 -2.9,1.23 -4.76,3.53 -5.21,-0.48 -0.61,-0.42 -2.37,1.15 -3.1,0.77 -5.3,2.43 -7.11,4.78 -4.36,1.01 -2.4,1.15 -5.82,3.15 -2.05,1.19 -1.63,0.66 -3.14,1.8 -2.27,1.71 -1.55,1.22 -2.89,3.24 -6.76,-0.11 -0.15,-0.75 -2.36,1.31 -5.41,0.22 -16.48,10.32 -21.77,13.32l-23.06 15.01c-2.76,1.83 -4.77,2.98 -7.27,4.56 -1.16,0.73 -2.65,1.36 -3.69,2.23 -4.49,3.75 -2.01,0.95 -2.74,4.61 -7.55,-2.44 -2.61,0.07 -3.38,1.32 -2.74,-1.22 -2.36,-1.61 -1.17,1.14 -2.77,-1.16 -2.37,-1.57 -1.22,1.21 -3.98,-0.24 -4.46,0.59 -7.92,1.58l-1.47 4.4c-5.45,-0.46 -10.66,4.62 -14.72,7.68l-15.47 10.61c-1.4,0.96 -0.72,0.38 -2.24,1.31l-1.48 0.9c-0.65,0.43 -1.95,1.47 -2,1.5l-21.9 13.66c-2.04,1.35 -4.65,3.28 -6.98,4.85 -2.23,1.5 -5.03,3.19 -7.16,4.7l-35.42 23.8c-4.47,2.3 -4.7,2.08 -6.25,5.69 -8.44,-0.11 -0.18,4.49 -14.09,4.03l-75.51 -50.33c-0.21,-0.16 -0.48,-0.38 -0.68,-0.53l-21.55 -13.97c-5.8,-4.07 1.5,-0.81 -5.44,-4.99 -10.8,-6.5 -4.29,-1.3 -14.15,-8.49l-3.69 -2.29c-0.22,-0.15 -0.5,-0.36 -0.72,-0.51 -6.12,-4.22 -5.29,-3.73 -6.21,-7.09 -0.72,-0.06 -3.18,-0.16 -3.72,-0.27 -4.85,-0.97 -4.19,-1.96 -6.32,-3.64l-18.85 -11.69c-3.8,-1.74 -2.06,-1.55 -6.89,-5.24l-3.83 -3.1c-2.13,-1.38 -0.34,-0.23 -3.18,-1.44l-8.78 -5.82c-7.99,-7.13 -3.9,-0.7 -10.88,-6.83 -0.18,-0.16 -0.41,-0.42 -0.59,-0.57l-9.79 -6.42c-7.4,-3.08 -10.42,-10 -18.92,-9.94l-0.08 -3.45c-8.99,-4.33 -13.68,-8.72 -19.08,-11.67 -17.37,-9.51 -6.98,-9.93 -20.15,-9.71 -5.61,8.83 -2.47,58.9 -2.47,74.12 0,31.41 -1.64,230.46 1.06,233.2 6.08,6.17 14.57,-7.49 24.99,-8.99l1.12 -4.58z"/>
  <path class="fil2 str0" d="M138.98 264.66c-2.24,-0.58 -1.83,-1.01 -1.28,1.23 -6.46,-0.08 -2.17,0.47 -3.09,1.56 -5.46,0.44 -1.35,-0.41 -5.56,2.7l-53.73 36.13c-0.23,0.13 -0.55,0.26 -0.78,0.38l-37.26 24.31c-0.22,0.15 -0.52,0.32 -0.74,0.47 -33.94,22.83 -30.39,14.49 -30.22,47.69 0.06,12.53 -0.82,92.06 0.39,97.02 1.63,6.67 12.71,12.94 19.46,16.65 3.53,1.94 1.37,0.78 3.58,2.32l11.82 7.14c5.03,2.69 2.17,1.87 7.04,4.82l80.99 50.63c2.45,1.43 4.39,2.51 7.35,4.32l54.99 34.86c0.21,0.16 0.44,0.42 0.64,0.58l2.52 2.21c10.65,7.52 -0.85,2.15 10.86,6.51 3.05,1.14 1.97,0.91 2.61,1.29l32.36 19.98c4.67,3.13 27.04,18.57 31.44,17.43l60.63 -39.23c4.44,0.8 1.75,0.52 2.33,-1.25 4.42,0.69 3.94,-1.35 4.77,-3.5 5.86,1.26 2,0.31 2.67,-1.03 2.37,-0.13 0.84,0.68 2.75,-0.66 2.19,-1.53 1.31,-0.22 2.05,-2.85 4.96,1 1.64,0.25 2.36,-1.16 3.65,-0.06 11.69,-5.1 15.09,-9.65 4.46,0.17 3.9,0.48 4.76,-3.56 2.56,-0.1 3.22,0.02 5.72,-1.28 3.05,-1.58 0.81,-0.22 2.08,-1.55 2.12,-2.24 1.02,-1.21 1.77,-2.98 2.8,-0.07 2.08,0.7 4.76,-1.09 2.89,-1.94 2.12,-2.33 3.1,-4.1l-2.96 0.37c-0.31,0.04 -0.93,0.55 -1.18,0.19 -0.22,-0.31 -0.67,0.11 -1.01,0.2l-2.24 3.68c-0.07,-0.18 -0.33,0.49 -0.48,0.75 -5.38,0.18 -1.29,-0.89 -5.93,2.36 -0.03,0.02 -1.97,1.59 -1.97,1.59 -1.85,1.67 -0.73,0.35 -1.67,1.85 -2.87,0.69 -1.02,-0.23 -3.25,1.49 -1.76,1.36 -0.73,0.8 -1.51,2.07 -4.02,0.17 -6.41,2.5 -9.02,3.96 -2.98,1.67 -0.53,-0.56 -3.68,2.25 -2.67,2.38 -1.44,0.97 -2.39,3.44 -4.35,-0.33 -2.15,-0.51 -2.36,1.16 -4.04,0.47 -1.06,-0.62 -3.59,1.31 -2.15,1.64 -0.56,-0.2 -1.22,2.21 -6.21,-1.65 -2.37,-1.05 -2.67,1.03 -3.99,0.07 -1.33,-0.62 -3.58,1.13 -2.41,1.86 -0.5,-0.75 -1.19,2.37 -4.1,-0.52 -1.86,-0.62 -2.33,1.25 -1.97,0.12 -0.61,-1.01 -5.35,1.79l-41.97 25.42c-5.08,2.41 -11.8,9.51 -19.59,6.2l-221.12 -139.04c-11.15,-6.86 -24.2,-13.83 -33.3,-21.18 -2,-31.15 0.07,-79.22 -0.36,-113.94 -0.1,-8.28 -0.8,-11.11 4.4,-15 2.59,-1.93 8.16,-5.58 10.81,-7.07l88.4 -59.38c0,-3.1 -0.74,-2.62 2.15,-1.56 -0.95,-2.58 -1.23,-2.06 1.3,-1.06 -1.08,-2.64 -1.22,-1.97 1.4,-0.99 0.35,-1.87 -2.21,-1.99 2.28,-1.3 0.48,-0.71 0.38,-0.77 1.53,-2.01 3.05,-3.31 10.09,-5.88 10.59,-8.35 0.08,-0.38 0.33,-0.47 0.45,-0.73 4.92,0.01 2.27,0.7 3.09,-1.56 2.35,0.64 1.97,1.09 1.28,-1.23 2.07,0.57 1.72,0.97 1.13,-1.09 10.76,-0.14 6.9,1.89 13.35,3.65 1.82,2.75 3.74,4.58 7.88,4.96 1.38,2.36 -1.78,-0.36 2.17,2.56 2.34,1.73 -0.63,0.12 2.53,1.01 -1.01,2.48 -1.16,1.84 1.36,1l2.22 2.54c0.33,0.31 1.76,1.51 1.93,1.63 3.12,2.1 2.8,1.85 6.25,1.99l-1.01 2.13c2.38,-0.64 2.12,-1.19 1.33,1.13 2.25,-0.76 1.85,-1.12 1.15,1.15 2.47,-0.71 2.4,-1.47 1.51,0.9 3.94,0.42 1.41,-0.64 4.5,1.49l2.61 3.24c4.45,-0.59 2,-0.57 2.23,1.31 3.38,0.55 1.06,-0.46 3.39,1.39 2.06,1.63 0.56,-0.09 1.31,2.19 4.23,-0.17 2.1,-0.41 2.3,1.19 3.75,0.54 0.99,-0.5 3.48,1.38 1.83,1.38 0.67,0.38 1.35,2.13 4.53,-0.58 2.16,-0.62 2.44,1.15 4.33,-0.52 2.05,-0.65 2.21,1.32 2.54,-0.89 2.2,-1.36 1.28,1.17 2.38,-0.87 2.03,-1.31 1.25,1.11 2.51,-0.82 2.54,-1.7 1.62,0.73 4.73,0.19 22.78,13.79 24.33,17.82 -2.35,3.15 -8.77,7.01 -13.18,9.94 -2.5,1.66 -4.91,2.8 -7.23,4.6 -2.41,1.87 -4.36,3.31 -6.93,5.02 -5.06,3.37 -9.25,5.56 -14.46,9.22 -3.52,2.47 -9.3,7.86 -14.23,8.25 -2.19,3.61 -5.43,4.54 -9.45,7.12 -5.65,3.63 -24.05,14.4 -27.41,18.82 -2.65,-0.92 -2.6,-1.64 -1.36,0.97 -2.68,-1.04 -2.19,-1.34 -1.09,1.29 -2.64,-1.07 -2.43,-1.67 -1.36,1.02 -5.25,-1 -1.85,-0.37 -2.41,1.17 -7.48,-0.07 -7.17,5.32 -7.7,4.12 -0.08,-0.19 -0.36,0.45 -0.54,0.67 -3.46,0.64 -1.19,-0.64 -4.17,1.73 -3.47,2.77 -0.8,0.42 -2.01,2.75 -3.71,0.31 -5.71,2.17 -7.53,4.27 -2.29,2.64 -2.32,4.08 -2.06,9.09 0.47,9.05 13.88,14.3 25.12,21.4 2.26,1.43 4.27,2.86 7.16,4.79l5.65 5c3.51,0.58 0.93,-0.55 3.42,1.35 2.21,1.69 0.54,-0.25 1.36,2.16 4.2,-0.37 2.03,-0.55 2.35,1.18 4.92,0.31 2.93,0.49 7.39,3.33 0.49,0.31 2.54,1.5 3.04,1.74 2.38,1.12 0.85,0.68 3.46,1.24 -1.11,2.61 -1.27,1.73 1.77,1.68 0,-2.94 0.82,-2.68 -1.77,-1.68 -1.11,-5.24 -6.81,-5.18 -15.03,-11.04 -5.48,-3.91 -10.23,-6.2 -15.75,-10.39l-23.93 -15.08c-3.51,-4.02 -2.16,-4.53 -2.53,-11.61l7.88 -7.42 4.48 -0.14c0.75,-1.95 1.13,-2.98 1.7,-4.35 4.03,0.07 1.33,0.9 4.85,-1.07 0.35,-0.2 1.47,-1.2 1.89,-1.65 1.47,-1.57 0.64,-0.78 1.5,-2.07 4.98,1.06 2.05,0.57 2.41,-1.17 2.76,1.13 2.59,1.78 1.36,-1.02 2.7,1.2 2.13,1.43 1.09,-1.29 2.28,0.96 1.94,1.43 1.36,-0.97 6.86,-0.28 13.37,-8.11 19.72,-10.38l5.56 -3.51c3.49,-2.44 3.72,-1.2 6.94,-3.72l2.49 -2.16c0.21,-0.16 0.5,-0.36 0.71,-0.52l19.59 -13.4c9.5,-7.67 5.73,-1.8 15.84,-10.32l9.89 -5.81c3.81,-2.33 1.57,-2.76 6.7,-4.36 4.88,-1.52 2.45,1 5.77,-3.03 5.29,-6.42 5.34,-5.03 0.55,-10.94 -2.61,-3.22 -2.05,-2.79 -6.15,-4.39l0.92 -4.82c0.08,0.21 -1.79,2.4 -6.39,-0.01 -6.52,-3.4 0.65,-2.67 -5.77,-4.57 -11.53,-3.41 -2.31,0.35 -10.53,-5.38 -7.76,-5.4 -5.76,-2.64 -13.09,-8.38 -3.72,-2.91 -13.14,-9.85 -17.12,-10.21l-4.15 -4.2c-2.86,-1.91 -2.76,-1.81 -6.25,-1.96 0.55,-2.28 0.87,-1.79 -1.36,-1 0.3,-3.99 -1.5,-3.44 -4.71,-3.57 -4.12,-5.85 -3.97,-5.13 -7.88,-4.96 -0.15,-0.27 -0.31,-1.03 -0.39,-0.85 -1.44,3.38 1.45,-1.93 -3.88,-3.97 -1.32,-0.51 -3.27,-0.72 -4.67,-0.53 -5.52,0.71 -3.15,0.79 -4.4,1.71 -2.16,-0.71 -1.8,-1.08 -1.13,1.09z"/>
  <path class="fil2 str0" d="M295.91 454.73c-1.12,3.13 0.77,-0.14 -1.39,2.27 -0.12,0.13 -1.6,1.51 -1.89,1.71 -3.11,2.1 -2.85,1.87 -6.48,1.86 -0.2,2.09 2.35,2.25 -2.31,1.2 1.15,2.66 1.46,2.2 -1.2,1.12 1.26,2.92 1.43,1.91 -2.01,1.94l-1.68 1.47c0,2.96 0.7,2.47 -2.09,1.49 0.94,2.59 1.23,2.07 -1.31,1.07 -0.27,1.98 2.34,2.09 -2.1,1.48 -0.88,1.65 4.16,2.49 -3.04,1.58 1,2.64 1.15,1.95 -1.47,0.99 0.98,2.58 1.35,2.16 -1.22,1.15 -0.11,0.13 0.06,4.87 -9.47,-0.31 -3.22,-1.75 1.58,0.43 -2.51,-1.52 0.17,0.26 0.49,0.32 0.58,0.76 0.11,0.55 0.93,1.25 1.11,1.51 0.13,0.2 0.38,0.53 0.51,0.74l12.01 2.23c4.07,-6.08 3.19,-2.87 8.81,-6.42 1.9,-1.2 2.02,-1.69 4.06,-2.93l12.05 -8.15c0.19,-0.13 0.46,-0.35 0.65,-0.48l1.42 -0.83c0.9,-0.47 1.25,-0.47 2.49,-1.05l10.22 -6.56c7.76,-5.42 26.27,-14.87 34.52,-21.31 0.27,-0.21 1.04,-0.81 1.33,-0.99l5.96 -3.5c0.3,-0.21 2.01,-1.32 2.14,-1.4l17.54 -10.93c0.21,-0.14 0.5,-0.33 0.71,-0.47l14.6 -9c3.68,-2.04 6.18,-3.44 9.86,-5.61l19.31 -12.59c2.86,-1.78 2.94,-1.05 5.62,-3.04l2.57 -2.77c0.03,-0.03 0.12,-0.23 0.23,-0.3 4.51,5.77 -1.01,35.08 1.95,44.64l-43.8 25.89c-5.51,2.42 -1.8,0.42 -5.35,3.13l-19.75 12.41c-2.44,1.4 -2.96,2.24 -4.97,3.34l-19.56 12.33c-3.88,2.78 0.53,0.67 -5.1,3.3l-48.68 30.54c-12.71,8.63 -10.47,2.76 -17.05,-0.61l-48.87 -30.64c-8.24,-4.59 -31.4,-23.11 -40.49,-24.2l4.42 3.59c4.43,3.05 6.34,2.89 10.52,7.14l1.08 1.33c3.61,0.46 1.19,-0.36 3.4,1.33 2.17,1.66 0.47,0.2 1.39,2.19 5.25,-0.74 1.8,-0.19 2.33,1.22 3.11,0.37 19.16,10.61 20.92,12.29 1.54,1.48 0.85,0.83 1.59,1.93 4.21,-0.61 1.69,-0.51 2.23,1.34 3.54,0.53 2.09,-0.02 4.97,2.12 0.02,0.02 1.76,1.7 1.81,1.76l1.06 1.32c2.6,-0.96 2.45,-1.63 1.41,0.98 2.43,-0.97 1.99,-1.31 1.19,1.17 4.84,-0.34 1.89,-0.33 2.24,1.29 4.56,-0.59 2.01,-0.49 2.32,1.24 2.65,-0.94 2.74,-1.88 1.63,0.75 2.66,-1.03 2.47,-1.65 1.35,1.03 2.92,-1.16 2.1,-1.54 2.1,1.68 0.98,0.86 4.88,3.37 6.9,4.62 2.98,1.84 5.35,3.37 8.03,5.05 4.74,2.96 11.44,7.97 15.88,9.67l91.14 -57.6c6.75,-4.05 27.01,-18.12 31.02,-19.32 0.83,-2.13 -1.55,-1.84 2.92,-1.31 1.88,-4.36 7.23,-6.25 14.4,-10.39l13.64 -8.85c3.9,-3.27 4.29,-5.61 4.57,-10.94 0.42,-7.86 0.66,-33.44 -0.97,-38.27 -2.06,-0.74 -1.67,-1.38 -5.4,-0.11 -1.59,0.54 -0.17,0.02 -1.59,0.79 -0.87,0.48 -1.47,1.02 -2.14,1.49 -2.78,1.92 -5.39,3.46 -7.91,5.15l-64.82 40.54c-0.21,0.14 -0.49,0.34 -0.7,0.48 -0.21,0.14 -0.51,0.32 -0.72,0.46l-43.46 26.63c-4.93,2.66 0.15,1.61 -5.22,1.69z"/>
  <path class="fil2 str0" d="M395.26 276.91c-7.02,0.03 -3.57,1.01 -8.94,3.86 -6.12,3.25 -4.6,0.12 -7.08,6.17 -6.77,-0.89 -2.87,0.09 -3.46,1.31 -4.22,-0.7 -3.71,0.73 -4.38,3.81 -8.07,-0.42 -9.51,3.66 -10.57,5 -4.94,-1.22 -1.74,-0.46 -2.32,1.21 -2.65,-1.13 -2.34,-1.61 -1.26,1.08 -2.49,-1.02 -2.1,-1.44 -1.29,1.13 -2.54,-0.97 -1.87,-1.37 -1.87,1.38 2.89,0.07 2.85,0.99 1.87,-1.38 2.65,0.91 2.4,1.47 1.29,-1.13 2.57,0.99 2.29,1.5 1.26,-1.08 5.96,1.72 2.23,1 2.32,-1.21 4.67,0.24 2.97,0.44 6.48,-1.77l3.42 -2.66c0.1,-0.38 0.46,-0.36 0.67,-0.57 3.15,-0.41 1.42,0.2 3.19,-1.4 2.26,-2.05 0.31,0.63 1.19,-2.42 0.35,0.01 0.82,0.04 1.05,-0.01l2.42 -1.3c2.25,-0.48 6.68,-3.24 8.72,-4.26 0.24,-0.12 1.87,-0.92 2.32,-1.19 0.89,-0.54 1.29,-0.79 2.09,-1.45l2.35 -2.44c0.09,-0.38 0.37,-0.44 0.53,-0.68 7.17,0.04 1.36,-0.29 7.26,-3.24 2.94,-1.47 6.59,-1.21 9.88,-1.45l3.79 5.65c4.79,2.68 10.39,6.95 15.77,10.33 5.37,3.38 11.4,8.25 16.91,10.65 0.33,0.15 0.79,0.05 0.96,0.5 0.71,1.87 0.26,0.12 2.71,1.43l58.38 37.47c2.02,1.38 1.29,0.97 2.69,2 0.19,0.14 0.45,0.36 0.64,0.5l1.35 0.92c21.04,12.93 15.56,9.45 15.88,37.46 0.29,25.76 0.96,77.91 -0.26,99.52 -6.75,5.7 -9.96,7.03 -16.51,11.22l-17.93 11.93c-2.41,0.61 -1.08,-0.09 -3.06,1.4l-2.68 2.79c-0.18,0.2 -0.44,0.58 -0.68,0.86l5.28 -0.4 1.14 -4.65c8.89,0.1 5.23,0.48 12.87,-5.17l4.75 -3.48c1.67,-0.86 1.42,-0.47 2.74,-1.05 5.57,-2.43 2.68,-3.16 7.49,-4.61 1.49,-0.45 3.35,-0.39 4.91,-0.44 3.02,-4.93 -1.42,-4.43 5.97,-6.03 1.36,-16.91 0.33,-102.86 0.24,-126.76l-3.67 -3.81c-1.05,-1.42 -0.51,-1.11 -1.46,-2.13l-13.32 -9.02c-7.73,-4.71 -5.04,-1.82 -10.45,-6.3l-4.54 -3.81c-0.17,-0.17 -0.37,-0.47 -0.54,-0.64 -5.63,-5.42 4.05,1.87 -1.74,-1.54l-28.07 -17.27c-6.58,-5.45 -3.7,-1.17 -9.5,-5.79l-9.74 -6.73c-5.41,-3.13 -10.19,-7.7 -15.77,-10.23l-19.5 -12.76c-3.22,-2.29 0.79,-1.68 -5.03,-1.99 -0.25,-0.24 -0.71,-0.84 -0.89,-0.56l-4.11 -1.29c-1.9,-0.12 -3.88,0.34 -5.67,0.94 -1.09,0.36 -3.23,1.49 -4.02,2.19 -1.82,1.61 -1.78,2.18 -2.45,3.4z"/>
  <path class="fil1 str0" d="M285.65 632.87l41.97 -25.42c4.74,-2.8 3.38,-1.67 5.35,-1.79 0.47,-1.87 -1.77,-1.77 2.33,-1.25 0.69,-3.12 -1.22,-0.51 1.19,-2.37 2.26,-1.74 -0.41,-1.06 3.58,-1.13 0.3,-2.08 -3.54,-2.68 2.67,-1.03 0.66,-2.41 -0.93,-0.57 1.22,-2.21 2.52,-1.93 -0.45,-0.84 3.59,-1.31 0.21,-1.68 -1.99,-1.49 2.36,-1.16 0.95,-2.46 -0.27,-1.06 2.39,-3.44 3.15,-2.81 0.7,-0.59 3.68,-2.25 2.61,-1.46 5,-3.79 9.02,-3.96 0.78,-1.27 -0.25,-0.72 1.51,-2.07 2.22,-1.72 0.38,-0.8 3.25,-1.49 0.94,-1.5 -0.18,-0.18 1.67,-1.85 0.01,-0.01 1.95,-1.58 1.97,-1.59 4.65,-3.25 0.55,-2.18 5.93,-2.36 0.14,-0.26 0.41,-0.93 0.48,-0.75l2.24 -3.68c0.33,-0.08 0.79,-0.51 1.01,-0.2 0.25,0.36 0.87,-0.15 1.18,-0.19l2.96 -0.37 70.82 -44.04c1.3,-0.95 1.51,-0.94 2.95,-1.89l23.64 -14.41c4.13,-2.74 0.68,-3.3 5.75,-3.81 0.24,-0.28 0.51,-0.65 0.68,-0.86l2.68 -2.79c1.98,-1.49 0.65,-0.79 3.06,-1.4l17.93 -11.93c6.54,-4.19 9.76,-5.52 16.51,-11.22 1.23,-21.6 0.56,-73.76 0.26,-99.52 -0.32,-28.02 5.16,-24.54 -15.88,-37.46l-1.35 -0.92c-0.19,-0.13 -0.45,-0.36 -0.64,-0.5 -1.4,-1.03 -0.66,-0.62 -2.69,-2l-58.38 -37.47c-2.45,-1.31 -2,0.44 -2.71,-1.43 -0.17,-0.45 -0.63,-0.35 -0.96,-0.5l18.78 13.97c3.72,2.48 5.83,3.82 9.46,5.99l31.62 20.5c25.83,17.06 20.7,9.62 20.84,41 0.11,26.85 1.06,75.26 -0.47,98.12l-60.34 37.85c-26.99,18.09 -61.5,37.29 -87.89,55.39 -0.2,0.14 -0.48,0.35 -0.68,0.49 -0.2,0.14 -0.48,0.34 -0.69,0.47 -1.81,1.15 -0.93,0.57 -2.21,1.27l-19.83 12.26c-0.2,0.15 -0.46,0.38 -0.67,0.52l-36.36 22.91c-2.53,1.32 -2.45,1.36 -4.47,2.56l-21.65 14.01c-0.2,0.14 -0.48,0.35 -0.69,0.49l-2.92 1.73c-0.23,0.14 -0.54,0.28 -0.77,0.43l-4.28 4.06z"/>
  <path class="fil1 str0" d="M395.26 276.91c-0.16,0.24 -0.45,0.3 -0.53,0.68l-2.35 2.44c-0.8,0.66 -1.19,0.91 -2.09,1.45 -0.45,0.27 -2.08,1.07 -2.32,1.19 -2.05,1.02 -6.48,3.78 -8.72,4.26l-2.42 1.3c-0.23,0.05 -0.7,0.02 -1.05,0.01 -0.88,3.05 1.07,0.36 -1.19,2.42 -1.76,1.6 -0.04,0.99 -3.19,1.4 -0.21,0.21 -0.57,0.19 -0.67,0.57l-3.42 2.66c-3.51,2.21 -1.81,2.01 -6.48,1.77 -0.09,2.22 3.64,2.93 -2.32,1.21 1.04,2.58 1.32,2.08 -1.26,1.08 1.11,2.6 1.35,2.04 -1.29,1.13 0.99,2.37 1.02,1.45 -1.87,1.38 -6.96,2.96 -29.16,18.5 -39.86,24.24 -7.69,4.12 -12.6,7.39 -20.2,11.9l-15.63 9.22c-2.18,1.37 -0.88,0.27 -2.05,1.54 -1.87,2.03 -0.92,0.61 -1.74,3.06 -5.58,-1.54 -1.93,-0.51 -2.4,1.16 -6.56,-0.38 -49.09,29.46 -56.63,32.22 -1.98,2.33 -5.8,4.4 -8.16,5.71 -3.13,1.73 -6.59,3.52 -9.14,6.72 -5.83,0 -2.08,0.25 -6.98,3.21l-18.1 10.61c-0.23,0.12 -0.55,0.29 -0.76,0.41 -1.75,0.95 -0.52,0.27 -2.14,1.29 1.16,5.1 3.35,7.16 7.71,9.43l15.27 9.6c0.22,0.14 0.53,0.3 0.75,0.44l4.22 2.82c0.21,0.14 0.5,0.33 0.72,0.47 8.22,5.16 6.62,5.8 12.08,5.73l2.66 3.16c2.6,2.06 1.88,1.53 5.15,2.05 0.75,2.2 -0.76,0.59 1.36,2.21 2.22,1.71 -0.08,0.84 3.42,1.31 0.5,1.48 -3,2.08 2.36,1.21 0.7,1.16 0.01,1.36 2.11,2.73 2.3,1.51 -0.47,0.67 3.45,1.02 0.7,1.5 -2.51,2.22 2.41,1.17 0.67,1.69 -2.83,2.65 2.3,1.26 -0.88,2.59 -1.26,2.15 1.28,1.15 -1.03,2.67 -1.36,2.2 1.27,1.13 0.61,1.57 -2.45,2.28 2.28,1.17 2.57,3.53 10.56,8.58 14.67,9.14l-0.55 2.04 0.53 -0.19c4.09,1.95 -0.71,-0.22 2.51,1.52 9.53,5.17 9.36,0.44 9.47,0.31 2.57,1 2.2,1.43 1.22,-1.15 2.63,0.96 2.47,1.65 1.47,-0.99 7.2,0.91 2.16,0.07 3.04,-1.58 4.43,0.61 1.83,0.5 2.1,-1.48 2.54,1.01 2.25,1.52 1.31,-1.07 2.79,0.98 2.09,1.47 2.09,-1.49 -3.27,-0.31 -3.18,-1.32 -2.09,1.49 -2.52,-0.93 -2.26,-1.47 -1.31,1.07 -4.26,-0.57 -1.56,-0.41 -2.1,1.48 -6.36,-0.35 -2.46,0.24 -3.04,1.58 -2.69,-0.99 -2.57,-1.71 -1.47,0.99 -2.54,-1.04 -2.14,-1.43 -1.22,1.15 -7,-1.47 -7.15,-3.59 -11.96,-3.69 -0.82,-1.93 1,-0.57 -2.59,-3.48 -1.4,-1.13 -2.33,-1.29 -3.81,-2.16 -5.29,-3.1 -2.56,-3.54 -8.27,-3.51 -0.26,-1.68 2.1,-1.68 -2.28,-1.17 0.9,-2.57 1.26,-2.13 -1.27,-1.13 1.05,-2.6 1.34,-2.08 -1.28,-1.15 -0.17,-1.97 2.29,-1.99 -2.3,-1.26 -0.21,-1.85 2.33,-1.93 -2.41,-1.17 -0.48,-1.93 1.35,-0.83 -1.8,-2.85 -2.69,-1.73 -0.42,-0.88 -3.76,-0.9 -0.46,-1.8 2.02,-1.93 -2.36,-1.21 -0.94,-2.84 1.16,-0.44 -1.28,-2.31 -2.27,-1.75 -0.19,-0.97 -3.49,-1.2 -3.56,-5.16 -4.64,-5.02 -7.81,-5.21l-3.73 -3.49c-1.67,-1.19 -2.8,-1.67 -5.21,-3.13l-18.67 -12.02c-7.27,-4.66 -5.47,0.48 -9.05,-8.33l18.52 -12.02c5.8,-3.26 4.45,-2.96 5.37,-5.02 6.8,-0.39 5.08,-1.88 10.13,-4.45l61.88 -37.43c1.68,-1.64 1.16,-1.17 1.93,-2.76 4.95,1.09 2.03,0.57 2.4,-1.16 4.99,-0.08 21.27,-11.08 26.89,-14.68 2.19,-1.4 1.76,-1.5 4.35,-2.87l72.81 -43.95c0.22,-0.13 0.52,-0.29 0.75,-0.42l26.09 -15.38c4.92,-1.15 6.09,1.68 10.7,3.36l-3.79 -5.65c-3.29,0.23 -6.94,-0.02 -9.88,1.45 -5.9,2.95 -0.09,3.28 -7.26,3.24z"/>
  <path class="fil1 str0" d="M138.98 264.66c0.68,2.33 1.06,1.87 -1.28,1.23 -0.82,2.25 1.83,1.57 -3.09,1.56 -0.13,0.26 -0.38,0.35 -0.45,0.73 -0.5,2.47 -7.54,5.04 -10.59,8.35 -1.15,1.25 -1.05,1.3 -1.53,2.01 -4.48,-0.69 -1.93,-0.57 -2.28,1.3 -2.62,-0.98 -2.47,-1.65 -1.4,0.99 -2.54,-1 -2.25,-1.52 -1.3,1.06 -2.89,-1.06 -2.15,-1.54 -2.15,1.56 3.34,0.22 3.25,1.26 2.15,-1.56 2.58,1 2.33,1.54 1.3,-1.06 2.52,0.98 2.31,1.58 1.4,-0.99 5.02,0.75 1.7,0.29 2.28,-1.3 4.71,-0.21 17.29,-10.08 21.18,-12.96 9.89,2.53 25.8,18.85 33.59,19.46 -0.56,2.3 -0.94,1.86 1.33,1.13 -0.73,2.31 -1.14,1.95 1.15,1.15 -0.79,2.55 -0.97,1.88 1.51,0.9l0.99 1.49c3.51,4.02 2.93,3.02 6.12,3.24 0.67,1.61 -2.3,2.04 2.23,1.31 0.98,2.81 -1.06,0.39 1.35,2.3 1.62,1.29 1.07,1.03 3.34,1.28 0.72,1.48 -2.5,2.25 2.3,1.19 1.01,2.18 -0.76,0.61 1.45,2.28 1.7,1.28 1.02,1.04 3.38,1.22 0.77,1.55 -2.17,2.14 2.44,1.15 0.69,1.57 -2.54,2.15 2.21,1.32 -0.82,2.49 -1.19,2.05 1.28,1.17 -0.93,2.49 -1.25,2.02 1.25,1.11 -0.95,2.62 -0.95,1.74 1.62,0.73l16.9 12.63c2.77,1.93 4.13,2.75 5.69,5.46 -3.02,1.67 -3.67,2.32 -6.38,4.12 -2.92,1.94 -4.55,2.66 -7.26,4.59 -4.86,3.44 -8.32,5.38 -13.69,8.82l-20.74 13.64c-3.09,1.68 -4.75,2.63 -6.21,5.59 -5.27,0.19 -56.81,35.49 -59,36.98 -5.49,3.72 -9.93,4.65 -10.21,13.61 -0.41,13.2 9.45,15.53 24.01,24.73 4.08,2.58 11.37,8.34 16.05,8.9 0.92,2.73 -1.05,0.48 1.33,2.31 1.66,1.27 1.16,1.04 3.45,1.21 0.7,1.58 -2.23,2.14 2.35,1.18 0.15,0.25 0.39,0.34 0.47,0.73 0.37,1.74 4.86,4.11 6.02,4.77 3.3,1.88 4.63,2.95 8.02,5.05 4.63,2.86 11.58,9.01 16.89,9.02 0.74,2.52 -0.91,0.63 1.29,2.32 2.39,1.84 -0.1,1 3.49,1.19 0.37,1.95 -2.14,2.13 2.33,1.22 2.7,4.72 18.97,14.15 22.51,14.22 0.39,1.86 -2.2,2.03 2.23,1.34 0.98,2.81 -2.37,0.06 2.46,3.59 2.16,1.58 3.14,1.41 5.38,1.6 -0.83,2.48 -1.04,1.87 1.41,0.98 -0.93,2.52 -1.33,2.12 1.19,1.17 0.59,1.79 -2.15,2.15 2.24,1.29 0.68,1.65 -2.07,2 2.32,1.24 -0.94,2.6 -0.94,1.72 1.63,0.75 -0.93,2.63 -1.2,2.09 1.35,1.03 -1.22,2.95 -1.33,1.91 2.1,1.68 0,-3.23 0.82,-2.84 -2.1,-1.68 1.12,-2.68 1.31,-2.06 -1.35,-1.03 1.11,-2.64 1.02,-1.69 -1.63,-0.75 -0.31,-1.73 2.24,-1.84 -2.32,-1.24 -0.35,-1.62 2.6,-1.63 -2.24,-1.29 0.81,-2.49 1.25,-2.14 -1.19,-1.17 1.04,-2.61 1.19,-1.94 -1.41,-0.98l-1.06 -1.32c-0.06,-0.06 -1.79,-1.74 -1.81,-1.76 -2.88,-2.14 -1.42,-1.58 -4.97,-2.12 -0.54,-1.84 1.99,-1.95 -2.23,-1.34 -0.74,-1.1 -0.05,-0.45 -1.59,-1.93 -1.75,-1.68 -17.81,-11.92 -20.92,-12.29 -0.54,-1.41 2.92,-1.95 -2.33,-1.22 -0.92,-1.99 0.79,-0.53 -1.39,-2.19 -2.21,-1.68 0.21,-0.87 -3.4,-1.33l-1.08 -1.33c-4.18,-4.26 -6.09,-4.09 -10.52,-7.14l-4.42 -3.59 0.28 0.49c-3.04,0.04 -2.88,0.93 -1.77,-1.68 -2.61,-0.56 -1.07,-0.12 -3.46,-1.24 -0.49,-0.23 -2.55,-1.42 -3.04,-1.74 -4.46,-2.83 -2.47,-3.02 -7.39,-3.33 -0.33,-1.73 1.84,-1.55 -2.35,-1.18 -0.82,-2.41 0.85,-0.47 -1.36,-2.16 -2.49,-1.9 0.1,-0.78 -3.42,-1.35l-5.65 -5c-2.89,-1.93 -4.9,-3.36 -7.16,-4.79 -11.25,-7.1 -24.65,-12.35 -25.12,-21.4 -0.26,-5.01 -0.22,-6.45 2.06,-9.09 1.82,-2.1 3.82,-3.96 7.53,-4.27 1.21,-2.33 -1.47,0.01 2.01,-2.75 2.97,-2.37 0.71,-1.09 4.17,-1.73 0.18,-0.22 0.45,-0.86 0.54,-0.67 0.53,1.19 0.23,-4.19 7.7,-4.12 0.55,-1.53 -2.84,-2.16 2.41,-1.17 -1.07,-2.69 -1.28,-2.09 1.36,-1.02 -1.1,-2.63 -1.59,-2.32 1.09,-1.29 -1.24,-2.61 -1.29,-1.88 1.36,-0.97 3.36,-4.42 21.76,-15.19 27.41,-18.82 4.02,-2.58 7.26,-3.51 9.45,-7.12 4.93,-0.39 10.71,-5.78 14.23,-8.25 5.22,-3.66 9.4,-5.85 14.46,-9.22 2.57,-1.71 4.52,-3.15 6.93,-5.02 2.32,-1.8 4.73,-2.94 7.23,-4.6 4.41,-2.94 10.83,-6.79 13.18,-9.94 -1.55,-4.03 -19.6,-17.63 -24.33,-17.82 0.92,-2.43 0.89,-1.55 -1.62,-0.73 0.78,-2.42 1.14,-1.98 -1.25,-1.11 0.93,-2.53 1.27,-2.06 -1.28,-1.17 -0.16,-1.98 2.12,-1.84 -2.21,-1.32 -0.29,-1.77 2.09,-1.73 -2.44,-1.15 -0.67,-1.75 0.48,-0.75 -1.35,-2.13 -2.49,-1.88 0.27,-0.83 -3.48,-1.38 -0.2,-1.61 1.93,-1.36 -2.3,-1.19 -0.75,-2.28 0.75,-0.56 -1.31,-2.19 -2.33,-1.85 -0.01,-0.84 -3.39,-1.39 -0.23,-1.89 2.22,-1.9 -2.23,-1.31l-2.61 -3.24c-3.09,-2.13 -0.57,-1.07 -4.5,-1.49 0.89,-2.37 0.96,-1.61 -1.51,-0.9 0.69,-2.27 1.1,-1.91 -1.15,-1.15 0.79,-2.31 1.06,-1.76 -1.33,-1.13l1.01 -2.13c-3.45,-0.14 -3.13,0.12 -6.25,-1.99 -0.17,-0.12 -1.6,-1.31 -1.93,-1.63l-2.22 -2.54c-2.52,0.84 -2.37,1.48 -1.36,-1 -3.16,-0.89 -0.19,0.72 -2.53,-1.01 -3.95,-2.92 -0.79,-0.2 -2.17,-2.56 -4.13,-0.38 -6.05,-2.21 -7.88,-4.96 -6.45,-1.75 -2.59,-3.78 -13.35,-3.65 0.6,2.05 0.94,1.66 -1.13,1.09z"/>
  <path class="fil3 str0" d="M295.91 454.73c-3.52,0.31 -2.11,-0.21 -5.38,1.75 -0.15,0.09 -1.95,1.48 -2.03,1.55 -2.46,2.18 -1.45,1.29 -2.34,2.54 -5.13,-1.64 -1.77,-0.55 -2.31,1.2 -2.67,-1.17 -2.31,-1.58 -1.2,1.12 -2.97,-1.22 -2.01,-1.47 -2.01,1.94 3.44,-0.02 3.27,0.99 2.01,-1.94 2.66,1.07 2.35,1.53 1.2,-1.12 4.66,1.05 2.11,0.89 2.31,-1.2 3.62,0.01 3.36,0.24 6.48,-1.86 0.29,-0.2 1.77,-1.57 1.89,-1.71 2.16,-2.42 0.27,0.85 1.39,-2.27 5.37,-0.08 0.29,0.97 5.22,-1.69l43.46 -26.63c0.22,-0.14 0.51,-0.32 0.72,-0.46 0.21,-0.14 0.49,-0.34 0.7,-0.48l64.82 -40.54c2.52,-1.68 5.13,-3.23 7.91,-5.15 0.67,-0.46 1.27,-1.01 2.14,-1.49 1.42,-0.78 -0,-0.25 1.59,-0.79 3.73,-1.27 3.34,-0.64 5.4,0.11 1.64,4.82 1.4,30.4 0.97,38.27 -0.29,5.34 -0.68,7.67 -4.57,10.94l-13.64 8.85c-7.17,4.14 -12.52,6.03 -14.4,10.39 -4.47,-0.53 -2.09,-0.82 -2.92,1.31 6.13,1.18 1.97,0.51 2.92,-1.31 4.65,-0.07 9.03,-4.98 12.81,-7.12 2.28,-1.29 1.89,-0.49 4.83,-2.24l16.06 -11.29c4.06,-5.03 3.05,-44.52 1.09,-52.15 -6.69,-1.9 -13.06,4.31 -17.44,7.26l-54.27 33.3c-2.68,1.84 -1.9,0.99 -4.67,2.51 -3.1,1.7 -4.66,3.74 -8.2,6.08l-49.17 30.2c-1.86,1.99 -0.46,-0.03 -1.35,2.13z"/>
  <path class="fil2 str0" d="M255.23 472.41l0.55 -2.04c-4.11,-0.57 -12.1,-5.61 -14.67,-9.14 -4.74,1.11 -1.67,0.4 -2.28,-1.17 -2.63,1.07 -2.3,1.54 -1.27,-1.13 -2.54,1 -2.17,1.44 -1.28,-1.15 -5.14,1.39 -1.63,0.42 -2.3,-1.26 -4.92,1.05 -1.71,0.33 -2.41,-1.17 -3.92,-0.35 -1.15,0.48 -3.45,-1.02 -2.1,-1.37 -1.41,-1.58 -2.11,-2.73 -5.36,0.87 -1.86,0.27 -2.36,-1.21 -3.49,-0.47 -1.19,0.4 -3.42,-1.31 -2.11,-1.62 -0.61,-0.01 -1.36,-2.21 -3.27,-0.51 -2.55,0.01 -5.15,-2.05l-2.66 -3.16c-5.46,0.07 -3.86,-0.58 -12.08,-5.73 -0.22,-0.14 -0.51,-0.33 -0.72,-0.47l-4.22 -2.82c-0.22,-0.14 -0.53,-0.3 -0.75,-0.44l-15.27 -9.6c-4.36,-2.27 -6.55,-4.33 -7.71,-9.43 1.62,-1.02 0.39,-0.34 2.14,-1.29 0.21,-0.12 0.53,-0.29 0.76,-0.41l18.1 -10.61c4.89,-2.96 1.15,-3.21 6.98,-3.21 2.54,-3.19 6.01,-4.98 9.14,-6.72 2.36,-1.31 6.18,-3.37 8.16,-5.71 -7.19,0.3 -26.79,15.7 -34.66,19.59l-12.22 6.71c-0.4,8.63 1.14,9.02 12.17,15.37l23.95 15.23c0.24,0.14 0.56,0.27 0.8,0.4 0.24,0.13 0.58,0.25 0.82,0.38l39.25 24.75c7.33,3.79 2.17,4.38 9.55,4.76z"/>
 </g>
</svg>
